<?xml version="1.0" encoding="utf-8"?>
<!-- Generator: Adobe Illustrator 19.2.1, SVG Export Plug-In . SVG Version: 6.00 Build 0)  -->
<svg version="1.1" id="layer" xmlns="http://www.w3.org/2000/svg" xmlns:xlink="http://www.w3.org/1999/xlink" x="0px" y="0px"
	 viewBox="0 0 652 652" style="enable-background:new 0 0 652 652;" xml:space="preserve">
<style type="text/css">
	.st0{fill:#00B19D;}
	.st1{fill:#617B8A;}
</style>
<g id="logo-alegra">
	<path class="st0" d="M200.5,363.2c0,0-48.2,23.1-101.5,10.7c-32.3-7.6-78.8-34.1-78.8-34.1l48.2-64c0,0,23.1,36.1,51.3,58.1
		C168.5,372.2,200.5,363.2,200.5,363.2 M184.3,354.6c0,0-22.4-9.3-33.4-53c-6.5-25.5-3.4-56.4-3.4-56.4l-56.4,15.1
		c0,0,14.8,36.1,29.9,55C146.1,346.3,184.3,354.6,184.3,354.6 M178.8,340.8c0,0-7.2-14.8,6.5-42c7.9-15.8,23.4-30.3,23.4-30.3
		l-35.4-17.5c0,0-8.6,24.8-9.3,41.3C163.3,319.5,178.8,340.8,178.8,340.8 M183.3,327.1c0,0,3.1-8.9,20-14.4c9.6-3.1,22-2.8,22-2.8
		l-7.6-21.7c0,0-13.8,6.9-20.6,13.1C185.7,311.9,183.3,327.1,183.3,327.1"/>
	<path class="st1" d="M329.8,364.9h8.6V263.8h-8.6V364.9z M526.6,309.9v-11.4H518v66.4h8.9v-36.8c0-6.9,1.4-11.4,6.9-15.8
		c3.8-3.1,7.2-4.1,12-4.5v-8.9C537.3,299.6,531.1,301.6,526.6,309.9L526.6,309.9z M417.6,319.5c-4.8-13.4-17.9-22.4-32.3-22.4
		c-19.3,0-34.4,15.8-34.4,34.7c0,18.9,15.5,34.7,34.4,34.7c13.4,0,26.1-8.3,31.7-20.6h-9.6c-4.5,7.6-13.4,13.1-22,13.1
		c-13.1,0-24.8-11-25.5-24.1H420C419.6,329.5,419.6,324.7,417.6,319.5L417.6,319.5z M359.8,327.4c2.1-12.7,12.4-22.7,25.5-22.7
		c13.4,0,22.7,10.3,25.5,22.7H359.8z M306.8,309.2c-5.2-6.5-15.5-12-26.1-12c-19.6,0-35.8,14.8-35.8,34.7
		c0,19.6,16.2,34.7,35.8,34.7c11,0,19.6-4.5,26.1-13.1v11.7h8.6v-32l0,0c0-0.3,0-0.7,0-1C315.4,323,312.3,315,306.8,309.2
		L306.8,309.2z M280.6,359.1c-14.8,0-27.2-12.4-27.2-27.2s12.4-27.2,27.2-27.2c14.8,0,26.1,12.7,26.1,27.2
		C306.8,346.3,295.4,359.1,280.6,359.1L280.6,359.1z M620.2,331.9c0-8.9-3.1-16.9-8.6-22.7c-5.2-6.5-15.5-12-26.1-12
		c-19.6,0-35.8,14.8-35.8,34.7c0,19.6,16.2,34.7,35.8,34.7c11,0,19.6-4.5,26.1-13.1v11.7h8.6v-32l0,0
		C620.2,332.6,620.2,332.2,620.2,331.9L620.2,331.9z M585.5,359.1c-14.8,0-27.2-12.4-27.2-27.2s12.4-27.2,27.2-27.2
		s26.1,12.7,26.1,27.2C611.6,346.3,599.9,359.1,585.5,359.1L585.5,359.1z M493.6,308.8c-4.8-6.9-15.5-11.7-26.5-11.7
		c-19.3,0-34.1,16.5-34.1,35.1c0,18.9,15.5,34.4,34.4,34.4c10.3,0,21.7-4.8,25.8-14.8v14.8c0,14.1-10.3,24.1-24.8,24.1
		c-5.5,0-11.4-1.7-15.8-5.2c-3.8-2.8-6.5-7.6-8.9-11.7h-8.6c1.4,3.8,2.4,6.5,4.5,10c6.2,8.9,17.2,14.4,28.2,14.4
		c10.3,0,21-4.5,27.9-12.4c5.5-6.9,6.2-12.4,6.2-21.3v-32.3C502.2,323.6,499.1,315.4,493.6,308.8L493.6,308.8z M467.8,359.1
		c-15.1,0-26.1-12.7-26.1-27.5c0-14.4,10.7-26.8,25.5-26.8s26.5,12.4,26.5,26.8C493.6,346,482.6,359.1,467.8,359.1L467.8,359.1z"/>
</g>
</svg>
